<mxfile host="Electron" modified="2024-04-20T12:50:15.991Z" agent="Mozilla/5.0 (Windows NT 10.0; Win64; x64) AppleWebKit/537.36 (KHTML, like Gecko) draw.io/24.1.0 Chrome/120.0.6099.109 Electron/28.1.0 Safari/537.36" etag="rVqyHOvtdUjeoB-VlpGS" version="24.1.0" type="device">
  <diagram name="Page-1" id="slS-i54JM-N5ZSzpBJAk">
    <mxGraphModel dx="1068" dy="988" grid="1" gridSize="10" guides="1" tooltips="1" connect="1" arrows="1" fold="1" page="1" pageScale="1" pageWidth="1169" pageHeight="827" math="0" shadow="0">
      <root>
        <mxCell id="0" />
        <mxCell id="1" parent="0" />
        <mxCell id="qxJrcSxVET2VQ3xojnO4-5" value="FILLED_OK" style="rounded=0;whiteSpace=wrap;html=1;" parent="1" vertex="1">
          <mxGeometry x="160" y="580" width="360" height="20" as="geometry" />
        </mxCell>
        <mxCell id="qxJrcSxVET2VQ3xojnO4-18" value="SYNCED" style="rounded=0;whiteSpace=wrap;html=1;" parent="1" vertex="1">
          <mxGeometry x="600" y="520" width="120" height="20" as="geometry" />
        </mxCell>
        <mxCell id="qxJrcSxVET2VQ3xojnO4-19" value="INCOMPLETE" style="rounded=0;whiteSpace=wrap;html=1;" parent="1" vertex="1">
          <mxGeometry x="160" y="540" width="360" height="20" as="geometry" />
        </mxCell>
        <mxCell id="qxJrcSxVET2VQ3xojnO4-20" value="EMPTY" style="rounded=0;whiteSpace=wrap;html=1;" parent="1" vertex="1">
          <mxGeometry x="720" y="480" width="120" height="40" as="geometry" />
        </mxCell>
        <mxCell id="qxJrcSxVET2VQ3xojnO4-24" value="NOT_SYNCED" style="rounded=0;whiteSpace=wrap;html=1;" parent="1" vertex="1">
          <mxGeometry x="600" y="540" width="120" height="40" as="geometry" />
        </mxCell>
        <mxCell id="qxJrcSxVET2VQ3xojnO4-26" value="&lt;div&gt;INCOMPLETE means, that the data is not complete enough to be synced. When the data is incomplete but synced, it is a server side error. We do not support an incomplete synced situation.&lt;/div&gt;" style="rounded=0;whiteSpace=wrap;html=1;dashed=1;align=left;" parent="1" vertex="1">
          <mxGeometry x="30" y="710" width="200" height="94" as="geometry" />
        </mxCell>
        <mxCell id="qxJrcSxVET2VQ3xojnO4-28" value="UNPARSEABLE" style="rounded=0;whiteSpace=wrap;html=1;" parent="1" vertex="1">
          <mxGeometry x="160" y="560" width="360" height="20" as="geometry" />
        </mxCell>
        <mxCell id="qxJrcSxVET2VQ3xojnO4-33" value="FILLED_SERVER_SIDE_ERROR" style="rounded=0;whiteSpace=wrap;html=1;" parent="1" vertex="1">
          <mxGeometry x="160" y="600" width="360" height="20" as="geometry" />
        </mxCell>
        <mxCell id="qxJrcSxVET2VQ3xojnO4-35" value="SYNCED" style="rounded=0;whiteSpace=wrap;html=1;" parent="1" vertex="1">
          <mxGeometry x="600" y="580" width="120" height="20" as="geometry" />
        </mxCell>
        <mxCell id="qxJrcSxVET2VQ3xojnO4-36" value="SYNCED" style="rounded=0;whiteSpace=wrap;html=1;" parent="1" vertex="1">
          <mxGeometry x="600" y="600" width="120" height="20" as="geometry" />
        </mxCell>
        <mxCell id="qxJrcSxVET2VQ3xojnO4-38" value="EMPTY_NOT_REQUIRED" style="rounded=0;whiteSpace=wrap;html=1;" parent="1" vertex="1">
          <mxGeometry x="160" y="480" width="360" height="20" as="geometry" />
        </mxCell>
        <mxCell id="qxJrcSxVET2VQ3xojnO4-39" value="EMPTY_AS_SERVER_SIDE_ERROR" style="rounded=0;whiteSpace=wrap;html=1;" parent="1" vertex="1">
          <mxGeometry x="160" y="520" width="360" height="20" as="geometry" />
        </mxCell>
        <mxCell id="qxJrcSxVET2VQ3xojnO4-43" value="SYNCED" style="rounded=0;whiteSpace=wrap;html=1;" parent="1" vertex="1">
          <mxGeometry x="600" y="480" width="120" height="40" as="geometry" />
        </mxCell>
        <mxCell id="qxJrcSxVET2VQ3xojnO4-45" value="EMPTY" style="rounded=0;whiteSpace=wrap;html=1;" parent="1" vertex="1">
          <mxGeometry x="720" y="520" width="120" height="20" as="geometry" />
        </mxCell>
        <mxCell id="qxJrcSxVET2VQ3xojnO4-48" value="NO_ERROR" style="rounded=0;whiteSpace=wrap;html=1;" parent="1" vertex="1">
          <mxGeometry x="840" y="480" width="120" height="40" as="geometry" />
        </mxCell>
        <mxCell id="qxJrcSxVET2VQ3xojnO4-49" value="ERROR" style="rounded=0;whiteSpace=wrap;html=1;" parent="1" vertex="1">
          <mxGeometry x="840" y="520" width="120" height="20" as="geometry" />
        </mxCell>
        <mxCell id="qxJrcSxVET2VQ3xojnO4-50" value="NO_ERROR" style="rounded=0;whiteSpace=wrap;html=1;" parent="1" vertex="1">
          <mxGeometry x="840" y="580" width="120" height="20" as="geometry" />
        </mxCell>
        <mxCell id="qxJrcSxVET2VQ3xojnO4-51" value="ERROR" style="rounded=0;whiteSpace=wrap;html=1;" parent="1" vertex="1">
          <mxGeometry x="840" y="600" width="120" height="20" as="geometry" />
        </mxCell>
        <mxCell id="qxJrcSxVET2VQ3xojnO4-52" value="EMPTY_REQUIRED" style="rounded=0;whiteSpace=wrap;html=1;" parent="1" vertex="1">
          <mxGeometry x="160" y="500" width="360" height="20" as="geometry" />
        </mxCell>
        <mxCell id="qxJrcSxVET2VQ3xojnO4-53" value="N/A" style="rounded=0;whiteSpace=wrap;html=1;" parent="1" vertex="1">
          <mxGeometry x="720" y="540" width="120" height="40" as="geometry" />
        </mxCell>
        <mxCell id="qxJrcSxVET2VQ3xojnO4-54" value="N/A" style="rounded=0;whiteSpace=wrap;html=1;" parent="1" vertex="1">
          <mxGeometry x="840" y="540" width="120" height="40" as="geometry" />
        </mxCell>
        <mxCell id="qxJrcSxVET2VQ3xojnO4-55" value="FILLED" style="rounded=0;whiteSpace=wrap;html=1;" parent="1" vertex="1">
          <mxGeometry x="720" y="580" width="120" height="20" as="geometry" />
        </mxCell>
        <mxCell id="qxJrcSxVET2VQ3xojnO4-56" value="FILLED" style="rounded=0;whiteSpace=wrap;html=1;" parent="1" vertex="1">
          <mxGeometry x="720" y="600" width="120" height="20" as="geometry" />
        </mxCell>
        <mxCell id="qxJrcSxVET2VQ3xojnO4-57" value="ENABLED" style="rounded=0;whiteSpace=wrap;html=1;" parent="1" vertex="1">
          <mxGeometry x="160" y="620" width="360" height="20" as="geometry" />
        </mxCell>
        <mxCell id="qxJrcSxVET2VQ3xojnO4-59" value="ENABLED" style="rounded=0;whiteSpace=wrap;html=1;" parent="1" vertex="1">
          <mxGeometry x="600" y="620" width="360" height="20" as="geometry" />
        </mxCell>
        <mxCell id="qxJrcSxVET2VQ3xojnO4-60" value="MULTI_FIELD_ERROR_MARKED" style="rounded=0;whiteSpace=wrap;html=1;" parent="1" vertex="1">
          <mxGeometry x="160" y="640" width="360" height="20" as="geometry" />
        </mxCell>
        <mxCell id="qxJrcSxVET2VQ3xojnO4-61" value="&lt;div&gt;Empty as error exists only after execution of server-side validation of all fields.&lt;/div&gt;" style="rounded=0;whiteSpace=wrap;html=1;dashed=1;align=left;" parent="1" vertex="1">
          <mxGeometry x="1230" y="500" width="200" height="50" as="geometry" />
        </mxCell>
        <mxCell id="qxJrcSxVET2VQ3xojnO4-62" value="MULTI_FIELD_ERROR_PARTICIPANT" style="rounded=0;whiteSpace=wrap;html=1;" parent="1" vertex="1">
          <mxGeometry x="960" y="640" width="240" height="20" as="geometry" />
        </mxCell>
        <mxCell id="qxJrcSxVET2VQ3xojnO4-63" value="MULTI_FIELD_ERROR_PARTICIPANT" style="rounded=0;whiteSpace=wrap;html=1;" parent="1" vertex="1">
          <mxGeometry x="960" y="500" width="240" height="20" as="geometry" />
        </mxCell>
        <mxCell id="qxJrcSxVET2VQ3xojnO4-64" value="MULTI_FIELD_ERROR_PARTICIPANT" style="rounded=0;whiteSpace=wrap;html=1;" parent="1" vertex="1">
          <mxGeometry x="960" y="580" width="240" height="20" as="geometry" />
        </mxCell>
        <mxCell id="qxJrcSxVET2VQ3xojnO4-65" value="&lt;div style=&quot;font-size: 17px;&quot;&gt;Client Side Status affecting display properties.&lt;/div&gt;&lt;div style=&quot;&quot;&gt;&lt;font style=&quot;font-size: 14px;&quot;&gt;Error display elements are managed in component-specific way accoring to these general states.&lt;/font&gt;&lt;/div&gt;" style="rounded=0;whiteSpace=wrap;html=1;dashed=1;align=center;fontSize=17;" parent="1" vertex="1">
          <mxGeometry x="160" y="340" width="360" height="94" as="geometry" />
        </mxCell>
        <mxCell id="qxJrcSxVET2VQ3xojnO4-66" value="&lt;div style=&quot;font-size: 17px;&quot;&gt;Server Side Status&lt;/div&gt;&lt;div style=&quot;&quot;&gt;&lt;font style=&quot;font-size: 14px;&quot;&gt;Error display elements are managed component-specific accoring to these general states.&lt;/font&gt;&lt;/div&gt;" style="rounded=0;whiteSpace=wrap;html=1;dashed=1;align=center;fontSize=17;" parent="1" vertex="1">
          <mxGeometry x="600" y="340" width="360" height="94" as="geometry" />
        </mxCell>
        <mxCell id="rhh01OG-IXCvojbALjEP-2" value="IN_TRANSIT" style="rounded=0;whiteSpace=wrap;html=1;" vertex="1" parent="1">
          <mxGeometry x="510" y="700" width="120" height="20" as="geometry" />
        </mxCell>
        <mxCell id="rhh01OG-IXCvojbALjEP-3" value="REQUIRED" style="rounded=0;whiteSpace=wrap;html=1;" vertex="1" parent="1">
          <mxGeometry x="510" y="747" width="120" height="20" as="geometry" />
        </mxCell>
      </root>
    </mxGraphModel>
  </diagram>
</mxfile>
